<?xml version="1.0" encoding="UTF-8" standalone="no"?>
<!DOCTYPE svg PUBLIC "-//W3C//DTD SVG 1.1//EN"
 "http://www.w3.org/Graphics/SVG/1.1/DTD/svg11.dtd">
<!-- Generated by graphviz version 2.47.0 (20210316.0004)
 -->
<!-- Title: dependencies Pages: 1 -->
<svg width="1177pt" height="284pt"
 viewBox="0.00 0.00 1177.00 284.00" xmlns="http://www.w3.org/2000/svg" xmlns:xlink="http://www.w3.org/1999/xlink">
<g id="graph0" class="graph" transform="scale(1 1) rotate(0) translate(4 280)">
<title>dependencies</title>
<polygon fill="white" stroke="transparent" points="-4,4 -4,-280 1173,-280 1173,4 -4,4"/>
<text text-anchor="start" x="563.51" y="-42.4" font-family="Times-12" font-weight="bold" font-size="14.00">Legend</text>
<polygon fill="#ffffb3" stroke="transparent" points="350.5,-10 350.5,-30 370.5,-30 370.5,-10 350.5,-10"/>
<text text-anchor="start" x="374.13" y="-15.4" font-family="Times-12" font-size="14.00"> &#160;Declarations</text>
<polygon fill="#8dd3c7" stroke="transparent" points="463.5,-10 463.5,-30 483.5,-30 483.5,-10 463.5,-10"/>
<text text-anchor="start" x="487.23" y="-15.4" font-family="Times-12" font-size="14.00"> &#160;Module</text>
<polygon fill="#80b1d3" stroke="transparent" points="549.5,-10 549.5,-30 569.5,-30 569.5,-10 549.5,-10"/>
<text text-anchor="start" x="573.28" y="-15.4" font-family="Times-12" font-size="14.00"> &#160;Bootstrap</text>
<polygon fill="#fdb462" stroke="transparent" points="646.5,-10 646.5,-30 666.5,-30 666.5,-10 646.5,-10"/>
<text text-anchor="start" x="670.17" y="-15.4" font-family="Times-12" font-size="14.00"> &#160;Providers</text>
<polygon fill="#fb8072" stroke="transparent" points="742.5,-10 742.5,-30 762.5,-30 762.5,-10 742.5,-10"/>
<text text-anchor="start" x="766.23" y="-15.4" font-family="Times-12" font-size="14.00"> &#160;Exports</text>
<g id="clust1" class="cluster">
<title>cluster_AppModule</title>
<polygon fill="none" stroke="black" stroke-dasharray="1,5" points="8,-70 8,-195 154,-195 154,-70 8,-70"/>
</g>
<g id="clust6" class="cluster">
<title>cluster_AppModule_providers</title>
<polygon fill="none" stroke="black" points="16,-78 16,-130 146,-130 146,-78 16,-78"/>
</g>
<g id="clust7" class="cluster">
<title>cluster_DomainModule</title>
<polygon fill="none" stroke="black" stroke-dasharray="1,5" points="162,-70 162,-268 336,-268 336,-70 162,-70"/>
</g>
<g id="clust10" class="cluster">
<title>cluster_DomainModule_exports</title>
<polygon fill="none" stroke="black" points="188,-208 188,-260 310,-260 310,-208 188,-208"/>
</g>
<g id="clust12" class="cluster">
<title>cluster_DomainModule_providers</title>
<polygon fill="none" stroke="black" points="170,-78 170,-130 328,-130 328,-78 170,-78"/>
</g>
<g id="clust13" class="cluster">
<title>cluster_TemplatePlaygroundModule</title>
<polygon fill="none" stroke="black" stroke-dasharray="1,5" points="344,-70 344,-268 1161,-268 1161,-70 344,-70"/>
</g>
<g id="clust14" class="cluster">
<title>cluster_TemplatePlaygroundModule_declarations</title>
<polygon fill="none" stroke="black" points="939,-78 939,-130 1153,-130 1153,-78 939,-78"/>
</g>
<g id="clust18" class="cluster">
<title>cluster_TemplatePlaygroundModule_bootstrap</title>
<polygon fill="none" stroke="black" points="630,-208 630,-260 848,-260 848,-208 630,-208"/>
</g>
<g id="clust19" class="cluster">
<title>cluster_TemplatePlaygroundModule_providers</title>
<polygon fill="none" stroke="black" points="352,-78 352,-130 931,-130 931,-78 352,-78"/>
</g>
<!-- AppService -->
<g id="node1" class="node">
<title>AppService</title>
<ellipse fill="#fdb462" stroke="black" cx="81" cy="-104" rx="56.74" ry="18"/>
<text text-anchor="middle" x="81" y="-99.8" font-family="Times,serif" font-size="14.00">AppService</text>
</g>
<!-- AppModule -->
<g id="node2" class="node">
<title>AppModule</title>
<polygon fill="#8dd3c7" stroke="black" points="122.66,-187 119.66,-191 98.66,-191 95.66,-187 39.34,-187 39.34,-151 122.66,-151 122.66,-187"/>
<text text-anchor="middle" x="81" y="-164.8" font-family="Times,serif" font-size="14.00">AppModule</text>
</g>
<!-- AppService&#45;&gt;AppModule -->
<g id="edge1" class="edge">
<title>AppService&#45;&gt;AppModule</title>
<path fill="none" stroke="black" d="M81,-122.11C81,-122.11 81,-140.99 81,-140.99"/>
<polygon fill="black" stroke="black" points="77.5,-140.99 81,-150.99 84.5,-140.99 77.5,-140.99"/>
</g>
<!-- DomainService  -->
<g id="node3" class="node">
<title>DomainService </title>
<polygon fill="#fb8072" stroke="black" points="302.08,-252 195.92,-252 195.92,-216 302.08,-216 302.08,-252"/>
<text text-anchor="middle" x="249" y="-229.8" font-family="Times,serif" font-size="14.00">DomainService </text>
</g>
<!-- DomainModule -->
<g id="node4" class="node">
<title>DomainModule</title>
<polygon fill="#8dd3c7" stroke="black" points="301.15,-187 298.15,-191 277.15,-191 274.15,-187 196.85,-187 196.85,-151 301.15,-151 301.15,-187"/>
<text text-anchor="middle" x="249" y="-164.8" font-family="Times,serif" font-size="14.00">DomainModule</text>
</g>
<!-- DomainModule&#45;&gt;DomainService  -->
<g id="edge2" class="edge">
<title>DomainModule&#45;&gt;DomainService </title>
<path fill="none" stroke="black" stroke-dasharray="5,2" d="M249,-187.11C249,-187.11 249,-205.99 249,-205.99"/>
<polygon fill="black" stroke="black" points="245.5,-205.99 249,-215.99 252.5,-205.99 245.5,-205.99"/>
</g>
<!-- DomainService -->
<g id="node5" class="node">
<title>DomainService</title>
<ellipse fill="#fdb462" stroke="black" cx="249" cy="-104" rx="71.21" ry="18"/>
<text text-anchor="middle" x="249" y="-99.8" font-family="Times,serif" font-size="14.00">DomainService</text>
</g>
<!-- DomainService&#45;&gt;DomainModule -->
<g id="edge3" class="edge">
<title>DomainService&#45;&gt;DomainModule</title>
<path fill="none" stroke="black" d="M249,-122.11C249,-122.11 249,-140.99 249,-140.99"/>
<polygon fill="black" stroke="black" points="245.5,-140.99 249,-150.99 252.5,-140.99 245.5,-140.99"/>
</g>
<!-- TemplatePlaygroundComponent -->
<g id="node6" class="node">
<title>TemplatePlaygroundComponent</title>
<polygon fill="#ffffb3" stroke="black" points="1145.25,-122 946.75,-122 946.75,-86 1145.25,-86 1145.25,-122"/>
<text text-anchor="middle" x="1046" y="-99.8" font-family="Times,serif" font-size="14.00">TemplatePlaygroundComponent</text>
</g>
<!-- TemplatePlaygroundModule -->
<g id="node7" class="node">
<title>TemplatePlaygroundModule</title>
<polygon fill="#8dd3c7" stroke="black" points="827.47,-187 824.47,-191 803.47,-191 800.47,-187 650.53,-187 650.53,-151 827.47,-151 827.47,-187"/>
<text text-anchor="middle" x="739" y="-164.8" font-family="Times,serif" font-size="14.00">TemplatePlaygroundModule</text>
</g>
<!-- TemplatePlaygroundComponent&#45;&gt;TemplatePlaygroundModule -->
<g id="edge4" class="edge">
<title>TemplatePlaygroundComponent&#45;&gt;TemplatePlaygroundModule</title>
<path fill="none" stroke="black" d="M1046,-122.11C1046,-141.34 1046,-169 1046,-169 1046,-169 837.8,-169 837.8,-169"/>
<polygon fill="black" stroke="black" points="837.8,-165.5 827.8,-169 837.8,-172.5 837.8,-165.5"/>
</g>
<!-- TemplatePlaygroundComponent  -->
<g id="node8" class="node">
<title>TemplatePlaygroundComponent </title>
<polygon fill="#80b1d3" stroke="black" points="840.25,-252 637.75,-252 637.75,-216 840.25,-216 840.25,-252"/>
<text text-anchor="middle" x="739" y="-229.8" font-family="Times,serif" font-size="14.00">TemplatePlaygroundComponent </text>
</g>
<!-- TemplatePlaygroundModule&#45;&gt;TemplatePlaygroundComponent  -->
<g id="edge5" class="edge">
<title>TemplatePlaygroundModule&#45;&gt;TemplatePlaygroundComponent </title>
<path fill="none" stroke="black" stroke-dasharray="1,5" d="M739,-187.11C739,-187.11 739,-205.99 739,-205.99"/>
<polygon fill="black" stroke="black" points="735.5,-205.99 739,-215.99 742.5,-205.99 735.5,-205.99"/>
</g>
<!-- HbsRenderService -->
<g id="node9" class="node">
<title>HbsRenderService</title>
<ellipse fill="#fdb462" stroke="black" cx="840" cy="-104" rx="83.37" ry="18"/>
<text text-anchor="middle" x="840" y="-99.8" font-family="Times,serif" font-size="14.00">HbsRenderService</text>
</g>
<!-- HbsRenderService&#45;&gt;TemplatePlaygroundModule -->
<g id="edge6" class="edge">
<title>HbsRenderService&#45;&gt;TemplatePlaygroundModule</title>
<path fill="none" stroke="black" d="M792.03,-118.75C792.03,-118.75 792.03,-140.59 792.03,-140.59"/>
<polygon fill="black" stroke="black" points="788.53,-140.59 792.03,-150.59 795.53,-140.59 788.53,-140.59"/>
</g>
<!-- TemplateEditorService -->
<g id="node10" class="node">
<title>TemplateEditorService</title>
<ellipse fill="#fdb462" stroke="black" cx="638" cy="-104" rx="100.7" ry="18"/>
<text text-anchor="middle" x="638" y="-99.8" font-family="Times,serif" font-size="14.00">TemplateEditorService</text>
</g>
<!-- TemplateEditorService&#45;&gt;TemplatePlaygroundModule -->
<g id="edge7" class="edge">
<title>TemplateEditorService&#45;&gt;TemplatePlaygroundModule</title>
<path fill="none" stroke="black" d="M694.56,-119.08C694.56,-119.08 694.56,-140.76 694.56,-140.76"/>
<polygon fill="black" stroke="black" points="691.06,-140.76 694.56,-150.76 698.06,-140.76 691.06,-140.76"/>
</g>
<!-- ZipExportService -->
<g id="node11" class="node">
<title>ZipExportService</title>
<ellipse fill="#fdb462" stroke="black" cx="440" cy="-104" rx="79.87" ry="18"/>
<text text-anchor="middle" x="440" y="-99.8" font-family="Times,serif" font-size="14.00">ZipExportService</text>
</g>
<!-- ZipExportService&#45;&gt;TemplatePlaygroundModule -->
<g id="edge8" class="edge">
<title>ZipExportService&#45;&gt;TemplatePlaygroundModule</title>
<path fill="none" stroke="black" d="M440,-122.11C440,-141.34 440,-169 440,-169 440,-169 640.5,-169 640.5,-169"/>
<polygon fill="black" stroke="black" points="640.5,-172.5 650.5,-169 640.5,-165.5 640.5,-172.5"/>
</g>
</g>
</svg>
